:FULLY-SPECIFIED
:FORCE-ALL-JOINTS-BE-3DOF
:DEGREES
2039
root -3.24799 15.16 22.2835 178.238 -11.3719 172.999
lfemur -16.0211 9.12708 -23.2394
ltibia 55.6845 -0 0
lfoot -25.8039 17.4312 -0.0815602
ltoes -42.809 0 0
rfemur -59.8592 -15.8281 18.8036
rtibia 63.0369 -0 0
rfoot -0.556648 5.13637 -0.144081
rtoes -10.0124 0 0
lowerback 15.4644 -0.458263 -9.04727
upperback -0.45729 -2.2036 1.72118
thorax -8.8159 -0.642004 7.54983
lowerneck -2.71654 -4.32616 -6.64416
upperneck 7.13655 -5.73309 1.7602
head 3.01123 -3.02002 1.48048
lclavicle -2.20837e-14 3.61788e-14 0
lhumerus -7.97682 -37.1002 88.8419
lradius 69.9349 -0 0
lwrist -1.18741 0 0
lhand -27.7522 37.9832 -0.531256
lfingers 7.12502 -0 0
lthumb -1.14198 67.7565 -0.448604
rclavicle -2.20837e-14 3.61788e-14 0
rhumerus 5.63619 15.3363 -66.6773
rradius 116.456 -0 0
rwrist -45.4721 0 0
rhand 41.4349 -26.8176 0.0479695
rfingers 7.12502 -0 0
rthumb 63.4097 -34.9473 0.278724
2040
root -3.23917 15.1206 22.1077 177.973 -13.8578 172.829
lfemur -14.3299 7.8492 -23.2546
ltibia 55.4864 -0 0
lfoot -26.929 17.843 -0.156505
ltoes -43.3499 0 0
rfemur -60.9914 -16.491 18.4196
rtibia 60.8377 -0 0
rfoot 0.576839 5.76618 -0.288469
rtoes -8.64539 0 0
lowerback 15.4153 -0.132707 -9.55458
upperback -0.388026 -1.88824 1.51482
thorax -8.76575 -0.483989 7.55245
lowerneck -2.49225 -5.32395 -7.42818
upperneck 7.34078 -7.12483 2.52421
head 3.13514 -3.70548 1.77737
lclavicle -2.20837e-14 3.61788e-14 0
lhumerus -14.8412 -37.7078 92.7899
lradius 74.6497 -0 0
lwrist 3.98011 0 0
lhand -30.4904 39.6106 -0.969462
lfingers 7.12502 -0 0
lthumb -3.77732 69.1884 -0.815755
rclavicle -2.20837e-14 3.61788e-14 0
rhumerus 11.3991 13.5949 -64.2224
rradius 110.862 -0 0
rwrist -40.7383 0 0
rhand 40.1191 -26.7376 0.131205
rfingers 7.12502 -0 0
rthumb 62.172 -35.0671 0.618612
2041
root -3.23034 15.0812 21.9318 177.723 -16.0025 172.69
lfemur -13.0061 6.74093 -23.2821
ltibia 55.4185 -0 0
lfoot -28.0115 18.2733 -0.22359
ltoes -43.809 0 0
rfemur -61.7919 -17.0998 17.9759
rtibia 58.9437 -0 0
rfoot 1.66705 6.20215 -0.426976
rtoes -7.31323 0 0
lowerback 15.3695 0.157425 -10.0032
upperback -0.314289 -1.60444 1.33611
thorax -8.70948 -0.342921 7.55673
lowerneck -2.29367 -6.19299 -8.12204
upperneck 7.51624 -8.34063 3.17977
head 3.25108 -4.30429 2.02983
lclavicle -2.20837e-14 3.61788e-14 0
lhumerus -20.8945 -37.6753 96.2278
lradius 78.7128 -0 0
lwrist 8.64077 0 0
lhand -33.3349 41.3203 -1.30427
lfingers 7.12502 -0 0
lthumb -6.51143 70.7091 -1.09207
rclavicle -2.20837e-14 3.61788e-14 0
rhumerus 16.1172 11.9429 -62.2209
rradius 105.654 -0 0
rwrist -36.5164 0 0
rhand 38.5834 -26.7617 0.245795
rfingers 7.12502 -0 0
rthumb 60.7421 -35.4226 1.00992
2042
root -3.22152 15.0418 21.7559 177.491 -17.8321 172.577
lfemur -12.0075 5.78455 -23.3051
ltibia 55.464 -0 0
lfoot -29.0424 18.7219 -0.281751
ltoes -44.1942 0 0
rfemur -62.2877 -17.6527 17.4745
rtibia 57.3353 -0 0
rfoot 2.70911 6.45799 -0.554277
rtoes -6.01445 0 0
lowerback 15.3259 0.415261 -10.3959
upperback -0.237124 -1.34895 1.18229
thorax -8.64788 -0.217128 7.56078
lowerneck -2.12151 -6.94466 -8.73156
upperneck 7.66757 -9.39451 3.7384
head 3.35977 -4.82342 2.24233
lclavicle -2.20837e-14 3.61788e-14 0
lhumerus -26.1137 -37.1562 99.0837
lradius 82.1835 -0 0
lwrist 12.8424 0 0
lhand -36.2481 43.0889 -1.52903
lfingers 7.12502 -0 0
lthumb -9.30878 72.2952 -1.27146
rclavicle -2.20837e-14 3.61788e-14 0
rhumerus 19.9244 10.4447 -60.5799
rradius 100.785 -0 0
rwrist -32.7518 0 0
rhand 36.8355 -26.8868 0.386823
rfingers 7.12502 -0 0
rthumb 59.1237 -36.0061 1.44105
2043
root -3.21269 15.0024 21.58 177.277 -19.3724 172.487
lfemur -11.2936 4.96205 -23.3123
ltibia 55.6058 -0 0
lfoot -30.0127 19.1884 -0.330115
ltoes -44.5136 0 0
rfemur -62.5064 -18.1477 16.919
rtibia 55.9931 -0 0
rfoot 3.69803 6.5475 -0.665943
rtoes -4.74761 0 0
lowerback 15.2833 0.643897 -10.7356
upperback -0.157659 -1.11855 1.05059
thorax -8.58174 -0.104936 7.56267
lowerneck -1.97558 -7.59014 -9.26284
upperneck 7.79785 -10.3007 4.21127
head 3.46164 -5.26987 2.41927
lclavicle -2.20837e-14 3.61788e-14 0
lhumerus -30.535 -36.2791 101.351
lradius 85.1214 -0 0
lwrist 16.6329 0 0
lhand -39.1914 44.8917 -1.64128
lfingers 7.12502 -0 0
lthumb -12.1332 73.9221 -1.35165
rclavicle -2.20837e-14 3.61788e-14 0
rhumerus 22.9434 9.1345 -59.221
rradius 96.205 -0 0
rwrist -29.3897 0 0
rhand 34.8831 -27.1097 0.548491
rfingers 7.12502 -0 0
rthumb 57.3203 -36.8099 1.89875
2044
root -3.20387 14.9631 21.4042 177.086 -20.6496 172.418
lfemur -10.8242 4.25555 -23.2957
ltibia 55.8272 -0 0
lfoot -30.9134 19.6726 -0.368015
ltoes -44.7752 0 0
rfemur -62.4766 -18.5823 16.3146
rtibia 54.8976 -0 0
rfoot 4.62866 6.48452 -0.758458
rtoes -3.51125 0 0
lowerback 15.2404 0.846402 -11.0252
upperback -0.0770905 -0.909978 0.93825
thorax -8.51185 -0.00466553 7.56051
lowerneck -1.85481 -8.14044 -9.72225
upperneck 7.90889 -11.0735 4.60938
head 3.55686 -5.65069 2.565
lclavicle -2.20837e-14 3.61788e-14 0
lhumerus -34.2347 -35.1442 103.067
lradius 87.586 -0 0
lwrist 20.06 0 0
lhand -42.1265 46.7039 -1.64298
lfingers 7.12502 -0 0
lthumb -14.9485 75.5654 -1.33435
rclavicle -2.20837e-14 3.61788e-14 0
rhumerus 25.2864 8.02467 -58.0811
rradius 91.8641 -0 0
rwrist -26.3755 0 0
rhand 32.7337 -27.4274 0.724263
rfingers 7.12502 -0 0
rthumb 55.3354 -37.8259 2.36835
2045
root -3.19504 14.9237 21.2283 176.919 -21.6898 172.367
lfemur -10.56 3.64733 -23.2504
ltibia 56.1111 -0 0
lfoot -31.7355 20.174 -0.395004
ltoes -44.987 0 0
rfemur -62.2272 -18.9542 15.6677
rtibia 54.0293 -0 0
rfoot 5.49564 6.28289 -0.829219
rtoes -2.3039 0 0
lowerback 15.1957 1.02582 -11.2676
upperback 0.00332772 -0.720008 0.842514
thorax -8.43903 0.0853685 7.55238
lowerneck -1.75748 -8.60638 -10.1164
upperneck 8.00143 -11.7274 4.94363
head 3.64539 -5.97292 2.68384
lclavicle -2.20837e-14 3.61788e-14 0
lhumerus -37.3112 -33.8262 104.293
lradius 89.6369 -0 0
lwrist 23.1717 0 0
lhand -45.0146 48.5011 -1.54063
lfingers 7.12502 -0 0
lthumb -17.7184 77.2011 -1.22544
rclavicle -2.20837e-14 3.61788e-14 0
rhumerus 27.0578 7.11259 -57.1115
rradius 87.7134 -0 0
rwrist -23.6544 0 0
rhand 30.3948 -27.8365 0.906989
rfingers 7.12502 -0 0
rthumb 53.1727 -39.0455 2.83404
2046
root -3.18621 14.8843 21.0524 176.78 -22.5191 172.331
lfemur -10.4613 3.11992 -23.1739
ltibia 56.4406 -0 0
lfoot -32.4699 20.6923 -0.41087
ltoes -45.1571 0 0
rfemur -61.7878 -19.261 14.9861
rtibia 53.3689 -0 0
rfoot 6.29343 5.95646 -0.876539
rtoes -1.12411 0 0
lowerback 15.1476 1.18519 -11.4658
upperback 0.0822943 -0.545393 0.760617
thorax -8.36408 0.166857 7.53637
lowerneck -1.68123 -8.99864 -10.4523
upperneck 8.07537 -12.2771 5.22487
head 3.72702 -6.24366 2.78009
lclavicle -2.20837e-14 3.61788e-14 0
lhumerus -39.8723 -32.3783 105.102
lradius 91.3336 -0 0
lwrist 26.0158 0 0
lhand -47.8182 50.26 -1.34513
lfingers 7.12502 -0 0
lthumb -20.4071 78.8058 -1.0348
rclavicle -2.20837e-14 3.61788e-14 0
rhumerus 28.3556 6.38509 -56.2749
rradius 83.7037 -0 0
rwrist -21.1718 0 0
rhand 27.8738 -28.3335 1.08904
rfingers 7.12502 -0 0
rthumb 50.8363 -40.4595 3.27907
2047
root -3.17739 14.8449 20.8766 176.672 -23.1635 172.308
lfemur -10.4889 2.65604 -23.065
ltibia 56.7989 -0 0
lfoot -33.1075 21.2273 -0.415643
ltoes -45.2935 0 0
rfemur -61.1887 -19.501 14.2787
rtibia 52.8967 -0 0
rfoot 7.01633 5.51897 -0.899628
rtoes 0.0295808 -0 0
lowerback 15.0946 1.32753 -11.6226
upperback 0.158469 -0.382889 0.689802
thorax -8.2878 0.241495 7.51057
lowerneck -1.62326 -9.32776 -10.7369
upperneck 8.12994 -12.7371 5.46394
head 3.80143 -6.47 2.85803
lclavicle -2.20837e-14 3.61788e-14 0
lhumerus -42.0268 -30.8375 105.567
lradius 92.7356 -0 0
lwrist 28.6401 0 0
lhand -50.5001 51.9587 -1.07147
lfingers 7.12502 -0 0
lthumb -22.9799 80.3578 -0.776114
rclavicle -2.20837e-14 3.61788e-14 0
rhumerus 29.2735 5.82169 -55.5434
rradius 79.7856 -0 0
rwrist -18.8729 0 0
rhand 25.1784 -28.9141 1.26246
rfingers 7.12502 -0 0
rthumb 48.3312 -42.0576 3.68607
2048
root -3.16856 14.8055 20.7007 176.6 -23.6493 172.297
lfemur -10.6035 2.23847 -22.9239
ltibia 57.169 -0 0
lfoot -33.6392 21.7787 -0.409606
ltoes -45.4104 0 0
rfemur -60.4607 -19.6731 13.5554
rtibia 52.5934 -0 0
rfoot 7.65847 4.98412 -0.898564
rtoes 1.15863 -0 0
lowerback 15.035 1.45584 -11.741
upperback 0.230478 -0.229243 0.627314
thorax -8.21101 0.310983 7.47307
lowerneck -1.58033 -9.6042 -10.9775
upperneck 8.16384 -13.1221 5.67168
head 3.86818 -6.65907 2.92188
lclavicle -2.20837e-14 3.61788e-14 0
lhumerus -43.8806 -29.2293 105.759
lradius 93.9024 -0 0
lwrist 31.0925 0 0
lhand -53.0248 53.5773 -0.738208
lfingers 7.12502 -0 0
lthumb -25.4028 81.8371 -0.46637
rclavicle -2.20837e-14 3.61788e-14 0
rhumerus 29.902 5.39662 -54.896
rradius 75.9099 -0 0
rwrist -16.703 0 0
rhand 22.3163 -29.5739 1.4191
rfingers 7.12502 -0 0
rthumb 45.6632 -43.8283 4.03734
